<svg preserveAspectRatio="none" overflow="visible" style="display: block;" width="22" height="16" viewBox="0 0 22 16" fill="none" xmlns="http://www.w3.org/2000/svg">
<path id="toll" d="M8.325 13.675C6.775 12.125 6 10.2333 6 8C6 5.76667 6.775 3.875 8.325 2.325C9.875 0.775 11.7667 0 14 0C16.2333 0 18.125 0.775 19.675 2.325C21.225 3.875 22 5.76667 22 8C22 10.2333 21.225 12.125 19.675 13.675C18.125 15.225 16.2333 16 14 16C11.7667 16 9.875 15.225 8.325 13.675ZM6 15.75C4.23333 15.2833 2.79167 14.3333 1.675 12.9C0.558333 11.4667 0 9.83333 0 8C0 6.16667 0.558333 4.53333 1.675 3.1C2.79167 1.66667 4.23333 0.716667 6 0.25V2.35C4.8 2.76667 3.83333 3.49167 3.1 4.525C2.36667 5.55833 2 6.71667 2 8C2 9.28333 2.36667 10.4417 3.1 11.475C3.83333 12.5083 4.8 13.2333 6 13.65V15.75ZM18.25 12.25C19.4167 11.0833 20 9.66667 20 8C20 6.33333 19.4167 4.91667 18.25 3.75C17.0833 2.58333 15.6667 2 14 2C12.3333 2 10.9167 2.58333 9.75 3.75C8.58333 4.91667 8 6.33333 8 8C8 9.66667 8.58333 11.0833 9.75 12.25C10.9167 13.4167 12.3333 14 14 14C15.6667 14 17.0833 13.4167 18.25 12.25Z" fill="#12B839"/>
</svg>
